<?xml version="1.0" encoding="utf-8"?>
<!-- Generator: $$$/GeneralStr/196=Adobe Illustrator 27.6.0, SVG Export Plug-In . SVG Version: 6.00 Build 0)  -->
<svg version="1.1" id="Calque_1" xmlns="http://www.w3.org/2000/svg" xmlns:xlink="http://www.w3.org/1999/xlink" x="0px" y="0px"
	 viewBox="0 0 140.3 128.7" style="enable-background:new 0 0 140.3 128.7;" xml:space="preserve">
<path d="M62.2,79l-11.3,7.3c-0.9,0.6-1.2,1.8-0.6,2.8c0.6,0.9,1.8,1.2,2.8,0.6l11.3-7.3c0,0,0.1,0,0.1-0.1c3.6-2.6,5.6-6.8,5.5-11.2
	L69.9,68h-4l0.1,3.2C66.1,74.3,64.7,77.2,62.2,79z"/>
<path d="M78.1,68L78,71.1c-0.1,4.4,1.9,8.6,5.5,11.2c0,0,0.1,0,0.1,0.1l11.3,7.3c0.9,0.6,2.2,0.3,2.8-0.6c0.6-0.9,0.3-2.2-0.6-2.8
	L85.8,79c-2.5-1.8-3.9-4.8-3.8-7.9l0.1-3.2H78.1z"/>
<path d="M44.5,38.2h4.3v5.3c0,4.3,3.5,7.8,7.8,7.8h3.7V56h27.6v-5.5C94.4,45.7,101,39.4,101,28c-0.1-8.4-3.8-16.4-10.2-21.8
	C85.8,2.2,79.6,0,73.3,0c-11.5,0-21.6,6.9-25,17.2c0,0,0,0.1,0,0.1c-0.9,2.7-1.3,5.6-1.2,8.5l-5.4,7.2c-0.8,1-0.9,2.3-0.3,3.5
	C41.9,37.5,43.2,38.3,44.5,38.2z"/>
<path d="M96,60H52c-17.7,0-32,14.3-32,32v34c0,1.1,0.9,2,2,2c1.1,0,2-0.9,2-2V92c0-15.5,12.5-28,28-28h44c15.5,0,28,12.5,28,28v34
	c0,1.1,0.9,2,2,2s2-0.9,2-2l0,0V92C128,74.3,113.7,60,96,60z"/>
<path d="M11.6,54.2c1.8,0.9,3.9,1.1,5.8,0.4l23.3-8.5c1-0.4,1.6-1.5,1.2-2.6c-0.4-1-1.5-1.6-2.6-1.2c0,0,0,0,0,0l-23.3,8.5
	c-0.8,0.3-1.7,0.2-2.5-0.2c-0.7-0.4-1.3-1.1-1.5-1.9c-0.3-1.4,0.4-2.7,1.6-3.4c0.6-0.3,1.4-0.4,2-0.3c1.1,0.2,2.1-0.5,2.4-1.6
	c0.2-1.1-0.5-2.1-1.6-2.4c-3.8-0.8-7.6,1.7-8.4,5.5c-0.2,1-0.2,2,0,3C8.6,51.6,9.9,53.2,11.6,54.2z"/>
<path d="M16.1,74.7C15.2,74,14,74.1,13.3,75c-0.8,0.9-1.8,1.6-3,1.9c-2.3,0.5-4.7-0.6-5.8-2.7c-0.7-1.3-0.7-2.8-0.2-4.2
	c0.6-1.4,1.7-2.5,3.1-3l33.2-12.1c1-0.4,1.6-1.5,1.2-2.6c-0.4-1-1.5-1.6-2.6-1.2c0,0,0,0,0,0L6.1,63.2c-2.5,0.9-4.5,2.8-5.4,5.3
	c-1.9,4.7,0.4,10,5.1,11.8C6.8,80.8,8,81,9.2,81c2.8,0,5.5-1.3,7.3-3.5C17.1,76.6,17,75.4,16.1,74.7z"/>
<path d="M93.6,100.2c0.6-0.9,0.4-2.1-0.5-2.8c0,0,0,0,0,0l-5.2-3.7l0,0l-6-4.2c-4.8-3.3-11-3.3-15.8,0l-11.3,7.9
	c-0.9,0.6-1.1,1.9-0.5,2.8c0.6,0.9,1.9,1.1,2.8,0.5l0,0l6.8-4.8v0l4.4-3.1c1.2-0.8,2.6-1.4,4.1-1.6c2.5-0.4,5,0.2,7.1,1.6l11.3,7.9
	C91.8,101.2,93,101,93.6,100.2z"/>
<path d="M56,105c-0.3,0-0.7,0-1-0.1c-3.3-0.6-5.5-3.7-4.9-6.9c0.3-1.6,1.2-3,2.5-3.9l0.2-0.2c-3.3,0.4-6.3-1.9-6.7-5.2
	c-0.3-2.3,0.7-4.6,2.7-5.8l10.4-6.7c-0.1-1.3-0.3-2.6-0.7-3.9c-1.4-1.4-3.3-2.2-5.3-2.3c-3-0.1-6.1,1.3-9.3,4.2
	c-2.5,2.3-4.7,5-6.5,8c-3.6,6-5.9,12.6-6.9,19.5c-0.6,4.3-0.7,8.6-0.4,12.9c0.1,2.3,0.8,4.5,2,6.4c1.8,2.6,5.2,3.6,8.1,2.5l18.2-6.5
	c3.3-1.2,5.5-4.4,5.5-7.9v-8.4l-4.5,3.2C58.4,104.6,57.2,105,56,105z"/>
<path d="M117.4,101.7c-0.9-6.9-3.3-13.5-6.9-19.5c-1.8-3-4-5.7-6.5-8c-3.2-2.9-6.3-4.4-9.3-4.2c-2,0.1-3.9,0.9-5.3,2.3
	c-0.2,0.3-0.4,1.8-0.5,4L99.3,83c2.8,1.8,3.6,5.5,1.8,8.3c-1.3,2-3.5,3-5.8,2.7l0.2,0.2c2.7,1.9,3.4,5.6,1.5,8.4s-5.6,3.4-8.4,1.5
	l-4.5-3.2v8.4c0,3.5,2.2,6.7,5.5,7.9l18.2,6.5c2,0.8,4.3,0.6,6.2-0.5c2.2-1.4,3.6-3.7,3.8-6.3c0.3-3.1,0.4-6.2,0.3-9.3
	C117.8,105.5,117.7,103.6,117.4,101.7z"/>
</svg>
