<?xml version="1.0" encoding="utf-8"?>
<!-- Generator: $$$/GeneralStr/196=Adobe Illustrator 27.6.0, SVG Export Plug-In . SVG Version: 6.00 Build 0)  -->
<svg version="1.1" id="Calque_1" xmlns="http://www.w3.org/2000/svg" xmlns:xlink="http://www.w3.org/1999/xlink" x="0px" y="0px"
	 viewBox="0 0 91.1 75.4" style="enable-background:new 0 0 91.1 75.4;" xml:space="preserve">
<path d="M20.5,0.7c-1,0-1.9,0.8-1.9,1.9v29.7c0.6,0,1.2-0.1,1.9-0.1c12.8,0,23.1,10.4,23.1,23.1c0,8.1-4.2,15.3-10.6,19.4h50.4l0,0
	c1,0,1.8-0.8,1.8-1.9V2.6c0-1-0.8-1.9-1.8-1.9L20.5,0.7z M50.6,12H58c1,0,1.9,0.8,1.9,1.9v17.6c0,1-0.8,1.9-1.9,1.9h-7.4
	c-1,0-1.9-0.8-1.9-1.9V13.9C48.8,12.9,49.6,12,50.6,12z M52.5,15.7v13.9h3.7V15.7L52.5,15.7z M64.5,16.7h7.4c1,0,1.9,0.8,1.9,1.9v13
	c0,1-0.8,1.9-1.9,1.9h-7.4c-1,0-1.9-0.8-1.9-1.9v-13C62.7,17.5,63.5,16.7,64.5,16.7z M35.8,18.5h7.4c1,0,1.9,0.8,1.9,1.9v11.1
	c0,1-0.8,1.9-1.9,1.9h-7.4c-1,0-1.9-0.8-1.9-1.9V20.4C34,19.3,34.8,18.5,35.8,18.5z M66.4,20.4v9.3h3.7l0-9.3L66.4,20.4z M37.7,22.2
	v7.4h3.7v-7.4H37.7z M20.5,35.9c-10.7,0-19.4,8.7-19.4,19.4c0,4.4,1.4,8.4,3.9,11.6c3.6-4.7,9.2-7.8,15.6-7.8s12,3.1,15.6,7.8
	c2.4-3.2,3.9-7.3,3.9-11.6C40,44.7,31.3,35.9,20.5,35.9L20.5,35.9z M47.9,39.4h24.1c1,0,1.9,0.8,1.9,1.9c0,1-0.8,1.9-1.9,1.9H47.9
	c-1,0-1.9-0.8-1.9-1.9C46,40.3,46.8,39.4,47.9,39.4z M20.5,43.8c3.8,0,6.9,3.1,6.9,6.9c0,3.8-3.1,6.9-6.9,6.9s-6.9-3.1-6.9-6.9
	S16.7,43.8,20.5,43.8z M20.5,47.5c-1.8,0-3.2,1.4-3.2,3.2s1.4,3.2,3.2,3.2s3.2-1.4,3.2-3.2S22.4,47.5,20.5,47.5z M52.5,49.6h19.4
	c1,0,1.9,0.8,1.9,1.9c0,1-0.8,1.9-1.9,1.9H52.5c-1,0-1.9-0.8-1.9-1.9C50.6,50.5,51.5,49.6,52.5,49.6z M50.6,59.8h21.3
	c1,0,1.9,0.8,1.9,1.9s-0.8,1.9-1.9,1.9H50.6c-1,0-1.9-0.8-1.9-1.9S49.6,59.8,50.6,59.8z M20.5,62.9c-5.4,0-10.2,2.7-13,6.9
	c3.4,3.1,8,5,13,5s9.6-1.9,13-5C30.7,65.6,26,62.9,20.5,62.9L20.5,62.9z"/>
</svg>
