<?xml version="1.0" encoding="utf-8"?>
<!-- Generator: $$$/GeneralStr/196=Adobe Illustrator 27.6.0, SVG Export Plug-In . SVG Version: 6.00 Build 0)  -->
<svg version="1.1" id="Calque_1" xmlns="http://www.w3.org/2000/svg" xmlns:xlink="http://www.w3.org/1999/xlink" x="0px" y="0px"
	 viewBox="0 0 70.4 75.2" style="enable-background:new 0 0 70.4 75.2;" xml:space="preserve">
<path d="M46,34.7V12.8h0.4v21.9H46z M14.2,35.3V23.2l10.3,0v11.5h0.5v-1.1V19.7V18h1.7h7h1.7v16.7h0.5l0-21.9v0h-1.5l-17.3,7.8
	c-1.3,0.6-2.9,0-3.5-1.3c-0.6-1.3,0-2.9,1.3-3.5l6.4-2.9l-14.5,0c-0.8,0-1.4,0.6-1.4,1.4v33.5c0,0.8,0.6,1.4,1.4,1.4h57.5
	c0.8,0,1.4-0.6,1.4-1.4V14.2c0-0.8-0.6-1.4-1.4-1.4h-7.5v30l-42.6,0L14.2,35.3z M46.4,9.6c-0.5-0.1-1-0.3-1.4-0.7
	c-0.1-0.1-0.1-0.1-0.2-0.2h-1.7l-5.2,2.3h8.5L46.4,9.6z M64.2,8.8h-7.5v2.3h7.5c1.7,0,3.1,1.4,3.1,3.1v33.5c0,1.7-1.4,3.1-3.1,3.1
	l-57.5,0c-1.7,0-3.1-1.4-3.1-3.1V14.2c0-1.7,1.4-3.1,3.1-3.1h18.2l5.2-2.3l-23.4,0c-3,0-5.4,2.4-5.4,5.4v35.9c0,3,2.4,5.4,5.4,5.4
	h57.5c3,0,5.4-2.4,5.4-5.4V14.2C69.6,11.2,67.2,8.8,64.2,8.8L64.2,8.8z M56.3,69.3l-14.8-4.9v-7.2h-12v7.2l-14.8,4.9
	c-1.3,0.4-2.1,1.7-1.8,3c0.4,1.3,1.7,2.1,3,1.8l19.6-5.2L55,74.1c1.3,0.4,2.7-0.4,3-1.8C58.4,71,57.6,69.7,56.3,69.3z M15.8,41.1
	h39.2v-4.8H15.8V41.1z M15.8,24.9v8.7h6.9v-8.7H15.8z M26.6,19.7v13.9h7V19.7H26.6z M37.3,33.6h7V14.5h-7V33.6z M48.1,33.6h7V9.3h-7
	L48.1,33.6z M43.6,2.9l3.2,0.2L15.4,17.2c-0.5,0.2-0.7,0.8-0.5,1.3c0.2,0.5,0.8,0.7,1.3,0.5L47,5.2l-1,1.1c-0.4,0.4-0.3,1,0.1,1.4
	c0.4,0.4,1,0.3,1.4-0.1l4.1-4.5C51.6,3,51.7,3,51.7,2.9v0l0,0v0l0,0c0,0,0-0.1,0.1-0.1v0c0.1-0.2,0.1-0.4,0-0.6l0,0c0,0,0,0,0,0v0
	c-0.1-0.2-0.2-0.4-0.4-0.4c0,0,0,0,0,0h0l0,0c0,0,0,0-0.1,0h0l0,0h0c-0.1,0-0.2,0-0.2,0L43.7,1c-0.6,0-1,0.4-1.1,0.9
	C42.6,2.4,43.1,2.9,43.6,2.9L43.6,2.9z"/>
</svg>
