<?xml version="1.0" encoding="utf-8"?>
<!-- Generator: $$$/GeneralStr/196=Adobe Illustrator 27.6.0, SVG Export Plug-In . SVG Version: 6.00 Build 0)  -->
<svg version="1.1" id="Calque_1" xmlns="http://www.w3.org/2000/svg" xmlns:xlink="http://www.w3.org/1999/xlink" x="0px" y="0px"
	 viewBox="0 0 76 83.3" style="enable-background:new 0 0 76 83.3;" xml:space="preserve">
<path d="M68.9,12.5c-8.8-2.2-17.2-5.3-25.3-9.4L41.2,2c-2.1-1-4.4-1-6.5,0l-2.4,1.2c-8.1,4-16.5,7.2-25.3,9.4
	c-3.3,0.8-5.5,3.7-5.5,7.1v12.7c0,10.6,3.3,21,9.3,29.7c6.1,8.7,14.6,15.4,24.5,19.2c1.7,0.6,3.5,0.6,5.2,0
	c9.9-3.8,18.5-10.5,24.5-19.2c6-8.7,9.3-19.1,9.3-29.7V19.8C74.5,16.4,72.2,13.3,68.9,12.5L68.9,12.5z M54.3,30.8L36.9,51.7
	c-0.6,0.7-1.4,1.1-2.2,1.1c-0.8,0-1.6-0.3-2.2-0.9L21.9,41.3C21.3,40.8,21,40,21,39.1s0.3-1.6,0.9-2.2c0.6-0.6,1.4-0.8,2.3-0.8
	s1.6,0.4,2.2,1l8,8L49.5,27c1.1-1.3,3-1.5,4.4-0.4C55.1,27.6,55.3,29.5,54.3,30.8L54.3,30.8z"/>
</svg>
